<svg xmlns="http://www.w3.org/2000/svg" version="1.1" xmlns:xlink="http://www.w3.org/1999/xlink" xmlns:svgjs="http://svgjs.dev/svgjs" width="1728" height="1117" preserveAspectRatio="none" viewBox="0 0 1728 1117"><g mask="url(&quot;#SvgjsMask1046&quot;)" fill="none"><rect width="1728" height="1117" x="0" y="0" fill="rgba(229, 228, 233, 1)"></rect><path d="M1728 0L1095.55 0L1728 147.08z" fill="rgba(255, 255, 255, .1)"></path><path d="M1095.55 0L1728 147.08L1728 382.26L1074.55 0z" fill="rgba(255, 255, 255, .075)"></path><path d="M1074.55 0L1728 382.26L1728 835.04L1031.2 0z" fill="rgba(255, 255, 255, .05)"></path><path d="M1031.1999999999998 0L1728 835.04L1728 836.15L332.16999999999985 0z" fill="rgba(255, 255, 255, .025)"></path><path d="M0 1117L155.72 1117L0 1008.5699999999999z" fill="rgba(0, 0, 0, .1)"></path><path d="M0 1008.5699999999999L155.72 1117L459.54999999999995 1117L0 528.5999999999999z" fill="rgba(0, 0, 0, .075)"></path><path d="M0 528.5999999999999L459.54999999999995 1117L1218.07 1117L0 337.0299999999999z" fill="rgba(0, 0, 0, .05)"></path><path d="M0 337.03L1218.07 1117L1431.98 1117L0 160.92999999999998z" fill="rgba(0, 0, 0, .025)"></path></g><defs><mask id="SvgjsMask1046"><rect width="1728" height="1117" fill="#ffffff"></rect></mask></defs></svg>